<?xml version="1.0" encoding="UTF-8" standalone="no"?>
<!-- Created with Inkscape (http://www.inkscape.org/) -->

<svg
   version="1.1"
   id="svg1"
   width="274.38666"
   height="225.14667"
   viewBox="0 0 274.38666 225.14667"
   xmlns="http://www.w3.org/2000/svg"
   xmlns:svg="http://www.w3.org/2000/svg">
  <defs
     id="defs1" />
  <g
     id="g1">
    <path
       id="path1"
       d="m 118.06425,48.27467 28.85721,11.79229"
       style="fill:none;stroke:#000000;stroke-width:0.3985;stroke-linecap:butt;stroke-linejoin:miter;stroke-miterlimit:10;stroke-dasharray:2.98883, 1.99255;stroke-dashoffset:0;stroke-opacity:1"
       transform="matrix(1.3333333,0,0,-1.3333333,16.077333,209.72933)" />
    <path
       id="path2"
       d="M 0,0 V 155.16672"
       style="fill:none;stroke:#000000;stroke-width:0.85039;stroke-linecap:butt;stroke-linejoin:miter;stroke-miterlimit:10;stroke-dasharray:none;stroke-opacity:1"
       transform="matrix(1.3333333,0,0,-1.3333333,16.077333,209.72933)" />
    <path
       id="path3"
       d="M -1.60222,2.13629 C -1.4687,1.33517 0,0.13351 0.40054,0 0,-0.13351 -1.4687,-1.33517 -1.60222,-2.13629"
       style="fill:none;stroke:#000000;stroke-width:0.68031;stroke-linecap:round;stroke-linejoin:round;stroke-miterlimit:10;stroke-dasharray:none;stroke-opacity:1"
       transform="matrix(0,-1.3333333,-1.3333333,0,16.077333,2.8403733)" />
    <path
       id="path4"
       d="M 0,0 H 192.01765"
       style="fill:none;stroke:#000000;stroke-width:0.85039;stroke-linecap:butt;stroke-linejoin:miter;stroke-miterlimit:10;stroke-dasharray:none;stroke-opacity:1"
       transform="matrix(1.3333333,0,0,-1.3333333,16.077333,209.72933)" />
    <path
       id="path5"
       d="M -1.60222,2.13629 C -1.4687,1.33517 0,0.13351 0.40054,0 0,-0.13351 -1.4687,-1.33517 -1.60222,-2.13629"
       style="fill:none;stroke:#000000;stroke-width:0.68031;stroke-linecap:round;stroke-linejoin:round;stroke-miterlimit:10;stroke-dasharray:none;stroke-opacity:1"
       transform="matrix(1.3333333,0,0,-1.3333333,272.10087,209.72933)" />
    <path
       id="path6"
       d="m 5.6594688,-4.8759375 c -0.375,0.070312 -0.515625,0.3515625 -0.515625,0.5859375 0,0.28125 0.2226562,0.375 0.3867187,0.375 0.3632813,0 0.609375,-0.3046875 0.609375,-0.6328125 0,-0.4921875 -0.5742187,-0.7265625 -1.078125,-0.7265625 -0.7265625,0 -1.125,0.7148437 -1.2421875,0.9492187 C 3.5500938,-5.2275 2.8118125,-5.274375 2.5891563,-5.274375 c -1.21875,0 -1.8632813,1.5703125 -1.8632813,1.828125 0,0.046875 0.046875,0.1054687 0.12890625,0.1054687 0.10546875,0 0.12890625,-0.070312 0.15234375,-0.1171875 0.3984375,-1.3242187 1.2070313,-1.5703125 1.546875,-1.5703125 0.5390625,0 0.6445313,0.4921875 0.6445313,0.7851563 0,0.2578125 -0.070312,0.5390625 -0.2109375,1.1132812 L 2.5774375,-1.5009375 C 2.4016563,-0.774375 2.0500938,-0.118125 1.4172813,-0.118125 c -0.058594,0 -0.3515625,0 -0.60937505,-0.15234375 C 1.2415,-0.36421875 1.33525,-0.71578125 1.33525,-0.85640625 1.33525,-1.1025 1.1594688,-1.243125 0.9368125,-1.243125 c -0.29296875,0 -0.59765625,0.24609375 -0.59765625,0.6328125 0,0.50390625 0.5625,0.7265625 1.06640625,0.7265625 0.5742188,0 0.984375,-0.45703125 1.2304688,-0.9375 0.1992187,0.703125 0.796875,0.9375 1.2304687,0.9375 1.2304688,0 1.875,-1.5585938 1.875,-1.828125 0,-0.058594 -0.046875,-0.1054688 -0.1289062,-0.1054688 -0.1054688,0 -0.1171875,0.058594 -0.1523438,0.1523438 -0.3164062,1.0546875 -1.0195312,1.546875 -1.546875,1.546875 -0.421875,0 -0.65625,-0.31640625 -0.65625,-0.80859375 0,-0.25781255 0.058594,-0.44531255 0.2460938,-1.24218755 l 0.421875,-1.6171875 c 0.1757812,-0.7265625 0.5859375,-1.2421875 1.125,-1.2421875 0.035156,0 0.3632812,0 0.609375,0.1523438 z m 0,0"
       style="fill:#000000;fill-opacity:1;fill-rule:nonzero;stroke:none"
       aria-label="x"
       transform="matrix(1.3333333,0,0,1.3333333,261.09467,220.72)" />
    <path
       id="path7"
       d="M 3.1399609,1.3356641 C 2.8235547,1.7926953 2.3548047,2.2028516 1.7688672,2.2028516 c -0.140625,0 -0.7148438,-0.023437 -0.90234376,-0.5742188 0.046875,0.011719 0.10546875,0.011719 0.12890625,0.011719 0.35156251,0 0.59765621,-0.3164063 0.59765621,-0.5859375 0,-0.28125004 -0.234375,-0.37500004 -0.4101562,-0.37500004 -0.18750001,0 -0.60937501,0.140625 -0.60937501,0.72656254 0,0.609375 0.51562501,1.03125 1.19531251,1.03125 1.1953125,0 2.4023437,-1.1015625 2.7421875,-2.42578129 L 5.6829297,-4.652617 c 0.011719,-0.058594 0.035156,-0.1289062 0.035156,-0.1992187 0,-0.1757813 -0.1523437,-0.3046875 -0.328125,-0.3046875 -0.1054687,0 -0.3632812,0.046875 -0.4570312,0.4101562 l -0.8789063,3.515625 c -0.058594,0.2109375 -0.058594,0.23437501 -0.1523437,0.37500001 -0.2460938,0.328125 -0.6445313,0.73828125 -1.2070313,0.73828125 -0.6796875,0 -0.7382812,-0.65625 -0.7382812,-0.98437496 0,-0.6796875 0.328125,-1.6054688 0.6445312,-2.4609375 0.140625,-0.3515625 0.2109375,-0.515625 0.2109375,-0.75 0,-0.5039063 -0.3632812,-0.9609375 -0.9492187,-0.9609375 -1.10156251,0 -1.53515626,1.734375 -1.53515626,1.828125 0,0.046875 0.046875,0.1054687 0.12890625,0.1054687 0.10546875,0 0.1171875,-0.046875 0.1640625,-0.2109375 C 0.91339824,-4.558867 1.3587107,-5.027617 1.8274607,-5.027617 c 0.1054688,0 0.3164063,0 0.3164063,0.3867188 0,0.3164062 -0.140625,0.65625 -0.3164063,1.1132812 -0.5859375,1.5703125 -0.5859375,1.9570313 -0.5859375,2.25 0,1.13671876 0.8085938,1.39453126 1.40625,1.39453126 0.3515625,0 0.7851563,-0.10546875 1.1953125,-0.55078125 l 0.011719,0.0117188 c -0.1757813,0.703125 -0.2929688,1.171875 -0.7148438,1.75781229 z m 0,0"
       style="fill:#000000;fill-opacity:1;fill-rule:nonzero;stroke:none"
       aria-label="y"
       transform="matrix(1.3333333,0,0,1.3333333,4.4266667,11.293333)" />
    <path
       id="path8"
       d="M 0,0 118.06425,48.27467"
       style="fill:none;stroke:#0000ff;stroke-width:1.41731;stroke-linecap:butt;stroke-linejoin:miter;stroke-miterlimit:10;stroke-dasharray:none;stroke-opacity:1"
       transform="matrix(1.3333333,0,0,-1.3333333,16.077333,209.72933)" />
    <path
       id="path9"
       d="m 118.06425,48.27467 45.49694,72.76632"
       style="fill:none;stroke:#0000ff;stroke-width:1.41731;stroke-linecap:butt;stroke-linejoin:miter;stroke-miterlimit:10;stroke-dasharray:none;stroke-opacity:1"
       transform="matrix(1.3333333,0,0,-1.3333333,16.077333,209.72933)" />
    <path
       id="path10"
       d="M 4.252,0 C 4.252,2.34833 2.34833,4.252 0,4.252 -2.34833,4.252 -4.252,2.34833 -4.252,0 c 0,-2.34833 1.90367,-4.252 4.252,-4.252 2.34833,0 4.252,1.90367 4.252,4.252 z"
       style="fill:#bfbfbf;fill-opacity:1;fill-rule:nonzero;stroke:#000000;stroke-width:0.85039;stroke-linecap:butt;stroke-linejoin:miter;stroke-miterlimit:10;stroke-dasharray:none;stroke-opacity:1"
       transform="matrix(1.3333333,0,0,-1.3333333,16.077333,209.72933)" />
    <path
       id="path11"
       d="m 122.31627,48.27467 c 0,2.34835 -1.90367,4.25202 -4.25202,4.25202 -2.34834,0 -4.25199,-1.90367 -4.25199,-4.25202 0,-2.34832 1.90365,-4.252 4.25199,-4.252 2.34835,0 4.25202,1.90368 4.25202,4.252 z"
       style="fill:#ffffff;fill-opacity:1;fill-rule:nonzero;stroke:#000000;stroke-width:0.85039;stroke-linecap:butt;stroke-linejoin:miter;stroke-miterlimit:10;stroke-dasharray:none;stroke-opacity:1"
       transform="matrix(1.3333333,0,0,-1.3333333,16.077333,209.72933)" />
    <path
       id="path12"
       d="m 164.41147,120.47392 c 0,0.78276 -0.63455,1.41733 -1.41733,1.41733 -0.78276,0 -1.41733,-0.63457 -1.41733,-1.41733 0,-0.78276 0.63457,-1.41732 1.41733,-1.41732 0.78278,0 1.41733,0.63456 1.41733,1.41732 z"
       style="fill:#008080;fill-opacity:1;fill-rule:nonzero;stroke:#008080;stroke-width:0.3985;stroke-linecap:butt;stroke-linejoin:miter;stroke-miterlimit:10;stroke-dasharray:none;stroke-opacity:1"
       transform="matrix(1.3333333,0,0,-1.3333333,16.077333,209.72933)" />
    <path
       id="path13"
       d="m 160.95668,128.9531 -4.49121,-7.22104 9.62779,-5.98815 4.49121,7.22106"
       style="fill:none;stroke:#0000ff;stroke-width:1.13385;stroke-linecap:butt;stroke-linejoin:miter;stroke-miterlimit:10;stroke-dasharray:none;stroke-opacity:1"
       transform="matrix(1.3333333,0,0,-1.3333333,16.077333,209.72933)" />
    <path
       id="path14"
       d="m 28.3468,0 c 0,3.67612 -0.71748,7.32117 -1.82797,10.03827"
       style="fill:none;stroke:#bf0040;stroke-width:0.85039;stroke-linecap:butt;stroke-linejoin:miter;stroke-miterlimit:10;stroke-dasharray:none;stroke-opacity:1"
       transform="matrix(1.3333333,0,0,-1.3333333,16.077333,209.72933)" />
    <path
       id="path15"
       d="M -1.60222,2.13629 C -1.4687,1.33517 0,0.13351 0.40054,0 0,-0.13351 -1.4687,-1.33517 -1.60222,-2.13629"
       style="fill:none;stroke:#bf0040;stroke-width:0.68031;stroke-linecap:round;stroke-linejoin:round;stroke-miterlimit:10;stroke-dasharray:none;stroke-opacity:1"
       transform="matrix(-0.50441333,-1.2341733,-1.2341733,0.50441333,51.435773,196.34497)" />
    <g
       id="g15"
       aria-label="q&#10;1"
       transform="matrix(1.3333333,0,0,1.3333333,58.597333,203.10667)">
      <path
         id="path16"
         d="m 5.2736797,-5.1571484 c 0,-0.058594 -0.046875,-0.1054688 -0.1054688,-0.1054688 -0.1054687,0 -0.5625,0.4335938 -0.796875,0.8554688 -0.2109375,-0.5390625 -0.5859375,-0.8671875 -1.1015625,-0.8671875 -1.3476562,0 -2.80078121,1.7460937 -2.80078121,3.515625 0,1.18359371 0.69140621,1.87499996 1.50000001,1.87499996 0.6328125,0 1.1601562,-0.48046875 1.4179687,-0.75 l 0.011719,0.0117188 L 2.9416484,1.1709766 2.8361797,1.6045703 C 2.7307109,1.9561328 2.5432109,1.9561328 1.9807109,1.9678516 c -0.1289062,0 -0.2460937,0 -0.2460937,0.234375 0,0.082031 0.070312,0.1171875 0.1523437,0.1171875 0.1640625,0 0.3867188,-0.023437 0.5507813,-0.023437 h 1.21875 c 0.1757812,0 0.3867187,0.023437 0.5625,0.023437 0.070312,0 0.2109375,0 0.2109375,-0.2226563 0,-0.1289062 -0.09375,-0.1289062 -0.2695313,-0.1289062 -0.5625,0 -0.5976562,-0.082031 -0.5976562,-0.1757813 0,-0.058594 0.011719,-0.070312 0.046875,-0.2226562 z m -1.6875,3.7382812 c -0.058594,0.1992188 -0.058594,0.2226563 -0.2226563,0.44531251 -0.2695312,0.33984375 -0.796875,0.85546875 -1.359375,0.85546875 -0.4804687,0 -0.7617187,-0.4453125 -0.7617187,-1.14843746 0,-0.65625 0.375,-1.9921875 0.5976562,-2.4960938 0.4101563,-0.84375 0.9726563,-1.265625 1.4296875,-1.265625 0.796875,0 0.9492188,0.9726563 0.9492188,1.0664063 0,0.011719 -0.035156,0.1757812 -0.046875,0.1992187 z m 0,0"
         style="fill:#bf0040;fill-opacity:1;fill-rule:nonzero;stroke:none" />
      <path
         id="path17"
         d="m 7.6965313,-3.2821484 c 0,-0.2226563 -0.023437,-0.2226563 -0.234375,-0.2226563 -0.328125,0.3164063 -0.75,0.5039063 -1.5117188,0.5039063 v 0.2695312 c 0.2226563,0 0.6445313,0 1.1132813,-0.2226562 v 4.0898437 c 0,0.2929688 -0.023437,0.3984375 -0.7851563,0.3984375 h -0.28125 v 0.2578125 c 0.328125,-0.023437 1.0195313,-0.023437 1.3710938,-0.023437 0.3632812,0 1.0546875,0 1.3828125,0.023437 V 1.5342578 h -0.28125 c -0.75,0 -0.7734375,-0.1054687 -0.7734375,-0.3984375 z m 0,0"
         style="fill:#bf0040;fill-opacity:1;fill-rule:nonzero;stroke:none" />
    </g>
    <path
       id="path18"
       d="m 141.67737,57.94104 c 0,6.32413 -2.11574,12.46856 -5.55322,16.86838"
       style="fill:none;stroke:#bf0040;stroke-width:0.85039;stroke-linecap:butt;stroke-linejoin:miter;stroke-miterlimit:10;stroke-dasharray:none;stroke-opacity:1"
       transform="matrix(1.3333333,0,0,-1.3333333,16.077333,209.72933)" />
    <path
       id="path19"
       d="M -1.60222,2.13629 C -1.4687,1.33517 0,0.13351 0.40054,0 0,-0.13351 -1.4687,-1.33517 -1.60222,-2.13629"
       style="fill:none;stroke:#bf0040;stroke-width:0.68031;stroke-linecap:round;stroke-linejoin:round;stroke-miterlimit:10;stroke-dasharray:none;stroke-opacity:1"
       transform="matrix(-0.82088,-1.05064,-1.05064,0.82088,197.5762,109.98344)" />
    <g
       id="g19"
       aria-label="q&#10;2"
       transform="matrix(1.3333333,0,0,1.3333333,206,117.12133)">
      <path
         id="path20"
         d="m 5.2734375,-5.1564297 c 0,-0.058594 -0.046875,-0.1054687 -0.1054688,-0.1054687 -0.1054687,0 -0.5625,0.4335937 -0.796875,0.8554687 -0.2109375,-0.5390625 -0.5859374,-0.8671875 -1.1015624,-0.8671875 -1.3476563,0 -2.8007813,1.7460938 -2.8007813,3.515625 0,1.18359376 0.6914062,1.87500001 1.5,1.87500001 0.6328125,0 1.1601563,-0.48046875 1.4179688,-0.75 l 0.011719,0.0117188 L 2.9414063,1.1716953 2.8359375,1.6052891 C 2.7304688,1.9568516 2.5429688,1.9568516 1.9804687,1.9685703 c -0.1289062,0 -0.2460937,0 -0.2460937,0.234375 0,0.082031 0.070312,0.1171875 0.1523437,0.1171875 0.1640626,0 0.3867188,-0.023437 0.5507813,-0.023437 h 1.21875 c 0.1757813,0 0.3867187,0.023437 0.5625,0.023437 0.070312,0 0.2109375,0 0.2109375,-0.2226562 0,-0.1289063 -0.09375,-0.1289063 -0.2695313,-0.1289063 -0.5624999,0 -0.5976562,-0.082031 -0.5976562,-0.1757812 0,-0.058594 0.011719,-0.070312 0.046875,-0.2226563 z m -1.6875,3.7382813 c -0.058594,0.1992187 -0.058594,0.2226562 -0.2226562,0.44531246 -0.2695313,0.33984375 -0.796875,0.85546875 -1.359375,0.85546875 -0.4804688,0 -0.7617188,-0.4453125 -0.7617188,-1.14843751 0,-0.65625 0.375,-1.9921875 0.5976562,-2.4960937 0.4101563,-0.84375 0.9726563,-1.265625 1.4296876,-1.265625 0.7968749,0 0.9492187,0.9726562 0.9492187,1.0664062 0,0.011719 -0.035156,0.1757813 -0.046875,0.1992188 z m 0,0"
         style="fill:#bf0040;fill-opacity:1;fill-rule:nonzero;stroke:none" />
      <path
         id="path21"
         d="m 7.4414062,0.16388281 c 0.1289063,-0.1171875 0.4570313,-0.375 0.5859376,-0.4921875 0.4921875,-0.45703125 0.9609375,-0.89062501 0.9609375,-1.61718751 0,-0.9492187 -0.796875,-1.5585937 -1.7929688,-1.5585937 -0.9492188,0 -1.5820313,0.7265625 -1.5820313,1.4296875 0,0.3984375 0.3164063,0.4453125 0.421875,0.4453125 0.1640625,0 0.4101563,-0.1171875 0.4101563,-0.421875 0,-0.4101563 -0.3984375,-0.4101563 -0.4921875,-0.4101563 0.234375,-0.5859375 0.7734375,-0.7851562 1.1601562,-0.7851562 0.7382813,0 1.1250001,0.6328125 1.1250001,1.3007812 0,0.8320313 -0.5859376,1.42968751 -1.5234376,2.40234376 L 5.7070312,1.4881016 c -0.09375,0.09375 -0.09375,0.1054687 -0.09375,0.3046875 H 8.765625 L 8.9882813,0.36310156 H 8.7421875 C 8.71875,0.52716406 8.6601563,0.92560156 8.5664063,1.0779453 8.5195313,1.1365391 7.9101562,1.1365391 7.78125,1.1365391 H 6.3632812 Z m 0,0"
         style="fill:#bf0040;fill-opacity:1;fill-rule:nonzero;stroke:none" />
    </g>
    <g
       id="g21"
       aria-label="l&#10;1"
       transform="matrix(1.3333333,0,0,1.3333333,97.528,164.93467)">
      <path
         id="path22"
         d="m 3.0346641,-7.9929922 c 0.011719,-0.046875 0.035156,-0.1289062 0.035156,-0.1875 0,-0.1171875 -0.1171875,-0.1171875 -0.140625,-0.1171875 -0.011719,0 -0.4453125,0.035156 -0.65625,0.058594 -0.2109375,0.011719 -0.3867187,0.035156 -0.5976562,0.046875 -0.2929688,0.023437 -0.375,0.035156 -0.375,0.2578125 0,0.1171875 0.1171875,0.1171875 0.2460937,0.1171875 0.609375,0 0.609375,0.1054687 0.609375,0.2226562 0,0.046875 0,0.070312 -0.058594,0.2929688 l -1.48828129,5.9296875 c -0.0351563,0.1289062 -0.0585938,0.2226562 -0.0585938,0.41015621 0,0.59765625 0.4453125,1.078125 1.05468759,1.078125 0.3867187,0 0.65625,-0.2578125 0.84375,-0.6328125 0.1992187,-0.3984375 0.375,-1.14843751 0.375,-1.19531251 0,-0.058594 -0.046875,-0.1054687 -0.1171875,-0.1054687 -0.1171875,0 -0.1289063,0.058594 -0.1757813,0.234375 -0.2109375,0.83203121 -0.421875,1.46484371 -0.9023437,1.46484371 -0.3632813,0 -0.3632813,-0.38671875 -0.3632813,-0.55078125 0,-0.046875 0,-0.3046875 0.082031,-0.63281246 z m 0,0"
         style="fill:#0000ff;fill-opacity:1;fill-rule:nonzero;stroke:none" />
      <path
         id="path23"
         d="m 5.9936484,-3.2820547 c 0,-0.2226562 -0.023437,-0.2226562 -0.234375,-0.2226562 -0.328125,0.3164062 -0.75,0.5039062 -1.5117187,0.5039062 v 0.2695313 c 0.2226562,0 0.6445312,0 1.1132812,-0.2226563 v 4.0898438 c 0,0.2929687 -0.023437,0.3984375 -0.7851562,0.3984375 h -0.28125 v 0.2578125 c 0.328125,-0.023437 1.0195312,-0.023437 1.3710937,-0.023437 0.3632813,0 1.0546875,0 1.3828125,0.023437 V 1.5343516 h -0.28125 c -0.75,0 -0.7734375,-0.1054688 -0.7734375,-0.3984375 z m 0,0"
         style="fill:#0000ff;fill-opacity:1;fill-rule:nonzero;stroke:none" />
    </g>
    <g
       id="g23"
       aria-label="l&#10;2"
       transform="matrix(1.3333333,0,0,1.3333333,190.128,93.122667)">
      <path
         id="path24"
         d="m 3.0358359,-7.9933672 c 0.011719,-0.046875 0.035156,-0.1289062 0.035156,-0.1875 0,-0.1171875 -0.1171875,-0.1171875 -0.140625,-0.1171875 -0.011719,0 -0.4453125,0.035156 -0.65625,0.058594 -0.2109375,0.011719 -0.3867188,0.035156 -0.5976563,0.046875 -0.2929687,0.023437 -0.375,0.035156 -0.375,0.2578125 0,0.1171875 0.1171875,0.1171875 0.2460938,0.1171875 0.609375,0 0.609375,0.1054687 0.609375,0.2226562 0,0.046875 0,0.070312 -0.058594,0.2929688 l -1.48828121,5.9296875 c -0.0351563,0.1289062 -0.0585938,0.2226562 -0.0585938,0.41015621 0,0.59765625 0.4453125,1.078125 1.05468751,1.078125 0.3867188,0 0.65625,-0.2578125 0.84375,-0.6328125 0.1992188,-0.3984375 0.375,-1.14843751 0.375,-1.19531251 0,-0.058594 -0.046875,-0.1054687 -0.1171875,-0.1054687 -0.1171875,0 -0.1289062,0.058594 -0.1757812,0.234375 -0.2109375,0.83203121 -0.421875,1.46484371 -0.9023438,1.46484371 -0.3632813,0 -0.3632813,-0.38671875 -0.3632813,-0.55078125 0,-0.046875 0,-0.3046875 0.082031,-0.63281246 z m 0,0"
         style="fill:#0000ff;fill-opacity:1;fill-rule:nonzero;stroke:none" />
      <path
         id="path25"
         d="m 5.7370078,0.16288281 c 0.1289063,-0.1171875 0.4570313,-0.375 0.5859375,-0.4921875 0.4921875,-0.45703125 0.9609375,-0.89062501 0.9609375,-1.61718751 0,-0.9492187 -0.796875,-1.5585937 -1.7929687,-1.5585937 -0.9492188,0 -1.5820313,0.7265625 -1.5820313,1.4296875 0,0.3984375 0.3164063,0.4453125 0.421875,0.4453125 0.1640625,0 0.4101563,-0.1171875 0.4101563,-0.421875 0,-0.4101563 -0.3984375,-0.4101563 -0.4921875,-0.4101563 0.234375,-0.5859375 0.7734375,-0.7851562 1.1601562,-0.7851562 0.7382813,0 1.125,0.6328125 1.125,1.3007812 0,0.8320313 -0.5859375,1.42968751 -1.5234375,2.40234376 L 4.0026328,1.4871016 c -0.09375,0.09375 -0.09375,0.1054687 -0.09375,0.3046875 H 7.0612266 L 7.2838828,0.36210156 H 7.0377891 c -0.023437,0.1640625 -0.082031,0.5625 -0.1757813,0.71484374 -0.046875,0.058594 -0.65625,0.058594 -0.7851562,0.058594 H 4.6588828 Z m 0,0"
         style="fill:#0000ff;fill-opacity:1;fill-rule:nonzero;stroke:none" />
    </g>
    <path
       id="path26"
       d="m 146.72292,120.871 v 9.7226 h 8.67413 v -9.7226 z"
       style="fill:none;stroke:#000000;stroke-width:0.3985;stroke-linecap:butt;stroke-linejoin:miter;stroke-miterlimit:10;stroke-dasharray:none;stroke-opacity:1"
       transform="matrix(1.3333333,0,0,-1.3333333,16.077333,209.72933)" />
    <path
       id="path27"
       d="m 132.49286,134.7892 v 11.14003 h 10.29007 V 134.7892 Z"
       style="fill:none;stroke:#000000;stroke-width:0.3985;stroke-linecap:butt;stroke-linejoin:miter;stroke-miterlimit:10;stroke-dasharray:none;stroke-opacity:1"
       transform="matrix(1.3333333,0,0,-1.3333333,16.077333,209.72933)" />
    <path
       id="path28"
       d="m 142.78293,130.5936 v 12.78451 h 12.61412 V 130.5936 Z"
       style="fill:none;stroke:#000000;stroke-width:0.3985;stroke-linecap:butt;stroke-linejoin:miter;stroke-miterlimit:10;stroke-dasharray:none;stroke-opacity:1"
       transform="matrix(1.3333333,0,0,-1.3333333,16.077333,209.72933)" />
    <path
       id="path29"
       d="m 160.10262,103.35234 v 10.34674 h 9.12785 v -10.34674 z"
       style="fill:none;stroke:#000000;stroke-width:0.3985;stroke-linecap:butt;stroke-linejoin:miter;stroke-miterlimit:10;stroke-dasharray:none;stroke-opacity:1"
       transform="matrix(1.3333333,0,0,-1.3333333,16.077333,209.72933)" />
    <path
       id="path30"
       d="m 171.29973,93.17603 v 9.21261 h 12.0475 v -9.21261 z"
       style="fill:none;stroke:#000000;stroke-width:0.3985;stroke-linecap:butt;stroke-linejoin:miter;stroke-miterlimit:10;stroke-dasharray:none;stroke-opacity:1"
       transform="matrix(1.3333333,0,0,-1.3333333,16.077333,209.72933)" />
    <path
       id="path31"
       d="m 169.23047,102.38864 v 11.31044 h 10.68672 v -11.31044 z"
       style="fill:none;stroke:#000000;stroke-width:0.3985;stroke-linecap:butt;stroke-linejoin:miter;stroke-miterlimit:10;stroke-dasharray:none;stroke-opacity:1"
       transform="matrix(1.3333333,0,0,-1.3333333,16.077333,209.72933)" />
    <path
       id="path32"
       d="m 155.39705,113.69908 v 9.66637 h 7.90895 v -9.66637 z"
       style="fill:none;stroke:#000000;stroke-width:0.3985;stroke-linecap:butt;stroke-linejoin:miter;stroke-miterlimit:10;stroke-dasharray:none;stroke-opacity:1"
       transform="matrix(1.3333333,0,0,-1.3333333,16.077333,209.72933)" />
    <path
       id="path33"
       d="m 155.39705,123.36545 v 11.84894 h 7.90895 v -11.84894 z"
       style="fill:none;stroke:#000000;stroke-width:0.3985;stroke-linecap:butt;stroke-linejoin:miter;stroke-miterlimit:10;stroke-dasharray:none;stroke-opacity:1"
       transform="matrix(1.3333333,0,0,-1.3333333,16.077333,209.72933)" />
    <path
       id="path34"
       d="m 163.306,113.69908 v 12.86929 h 9.66637 v -12.86929 z"
       style="fill:none;stroke:#000000;stroke-width:0.3985;stroke-linecap:butt;stroke-linejoin:miter;stroke-miterlimit:10;stroke-dasharray:none;stroke-opacity:1"
       transform="matrix(1.3333333,0,0,-1.3333333,16.077333,209.72933)" />
  </g>
</svg>
